<?xml version="1.0" encoding="UTF-8"?>
<svg version="1.1" xmlns="http://www.w3.org/2000/svg" width="445" height="391">
<path d="M0 0 C146.85 0 293.7 0 445 0 C445 129.03 445 258.06 445 391 C298.15 391 151.3 391 0 391 C0 261.97 0 132.94 0 0 Z " fill="#041429" transform="translate(0,0)"/>
<path d="M0 0 C2.64 0 5.28 0 8 0 C7.979375 0.56847656 7.95875 1.13695313 7.9375 1.72265625 C8.03178607 5.25249093 8.24657511 7.98414622 10.390625 10.875 C14.27977423 14.40464804 18.6228325 17.01261809 23.125 19.6875 C36.31252279 27.56934502 48.01979984 38.53163579 57.125 50.875 C57.64634521 51.57898926 58.16769043 52.28297852 58.70483398 53.00830078 C73.90848809 73.78303382 75.39388098 97.96307155 75 123 C74.97486328 124.76923828 74.97486328 124.76923828 74.94921875 126.57421875 C74.22121483 141.48789911 67.91051084 157.30264099 61.73046875 170.765625 C57.57364673 179.87244357 58.47921682 189.30500724 60 199 C54.31995135 193.92852799 50.91809617 187.55134103 50 180 C49.86764771 177.30332202 49.77591495 174.63481452 49.75 171.9375 C49.7406543 171.26468994 49.73130859 170.59187988 49.72167969 169.89868164 C49.74263927 166.60278703 50.04859815 163.83698573 50.9921875 160.671875 C54.22927313 148.87784207 53.30546514 133.97568102 48 123 C47.38125 121.62714844 47.38125 121.62714844 46.75 120.2265625 C43.63124622 113.90045398 39.59396073 109.2205681 34.7734375 104.125 C24.42904681 92.81059129 15.83773893 78.67547787 9 65 C8.99668985 65.85753089 8.99337971 66.71506178 8.98996925 67.59857845 C8.90868544 88.48148674 8.81657532 109.36432292 8.71247292 130.24713039 C8.66238943 140.34597197 8.61594603 150.44480561 8.578125 160.54370117 C8.54514402 169.34773361 8.50527913 178.15170362 8.45720994 186.95566708 C8.43200563 191.61561334 8.41020651 196.27551852 8.39665604 200.93551445 C8.38378051 205.32594559 8.36166734 209.71623539 8.33261681 214.10658836 C8.32358382 215.71373715 8.31786085 217.32090868 8.31578636 218.92808151 C8.29394796 233.28326431 6.86441657 243.9552259 -3 255 C-16.33780206 267.32296929 -31.25749762 271.82171157 -49.12890625 271.3125 C-57.99948635 270.59640877 -66.32077406 266.91254436 -73 261 C-75.30661937 258.15384949 -77.22482013 255.20114403 -79 252 C-79.37382812 251.42765625 -79.74765625 250.8553125 -80.1328125 250.265625 C-82.68447647 243.59911553 -81.99969455 233.79495698 -80.1953125 226.9453125 C-74.29142654 214.20106212 -62.51592144 204.75608761 -49.6171875 199.82421875 C-43.14179873 197.78495453 -37.39522018 196.63330107 -30.625 196.6875 C-29.88185547 196.69313965 -29.13871094 196.6987793 -28.37304688 196.70458984 C-17.62770938 196.94113716 -8.71372729 200.28627271 -1 208 C-0.67 139.36 -0.34 70.72 0 0 Z " fill="#F9F9FA" transform="translate(232,20)"/>
<path d="M0 0 C3.9998593 -0.08783475 7.99946704 -0.14067102 12 -0.1875 C13.12535156 -0.21263672 14.25070312 -0.23777344 15.41015625 -0.26367188 C22.38357798 -0.32484224 28.88793699 -0.30750142 34.5859375 4.27563477 C37.10567038 6.90282172 37.98751146 8.92229354 38.5625 12.5 C37.88757341 16.6995432 36.81414326 18.81557473 34 22 C30.75 23.375 30.75 23.375 28 24 C28 24.66 28 25.32 28 26 C28.556875 26.21011719 29.11375 26.42023438 29.6875 26.63671875 C32.80085668 28.47212666 34.77732913 31.02742605 37 33.8125 C37.42539062 34.33392578 37.85078125 34.85535156 38.2890625 35.39257812 C40.27997321 37.8384669 42.22874325 40.30400987 44.125 42.82421875 C45.8899206 45.24787191 45.8899206 45.24787191 49 46 C49 46.66 49 47.32 49 48 C46.13391871 49.43304064 44.18699217 49.30644155 41 49 C35.83124095 46.1355574 32.76204149 42.58352581 29.3125 37.9375 C28.37283466 36.69529575 27.43148204 35.45436568 26.48828125 34.21484375 C26.08134033 33.66948975 25.67439941 33.12413574 25.25512695 32.56225586 C22.66922788 29.34358864 20.90440316 27.68454493 16.8125 26.8125 C15.554375 26.544375 14.29625 26.27625 13 26 C13.11397544 28.43847451 13.24070974 30.87513174 13.375 33.3125 C13.4059375 34.00279297 13.436875 34.69308594 13.46875 35.40429688 C13.68124919 39.06990789 13.91933861 40.87900792 16 44 C18.56282742 44.72965366 18.56282742 44.72965366 21 45 C21 45.99 21 46.98 21 48 C13.74 48 6.48 48 -1 48 C0 45 0 45 2.0625 43.8125 C2.701875 43.544375 3.34125 43.27625 4 43 C4.0988364 37.78561957 4.17145206 32.57178357 4.21972656 27.35668945 C4.23984903 25.58250431 4.2671503 23.80838554 4.30175781 22.03442383 C4.35024992 19.48502233 4.37296153 16.93649705 4.390625 14.38671875 C4.41127014 13.59287277 4.43191528 12.79902679 4.45318604 11.98112488 C4.49947287 9.4809155 4.49947287 9.4809155 4 6 C2.08515599 4.13774293 2.08515599 4.13774293 0 3 C0 2.01 0 1.02 0 0 Z " fill="#EEEFF0" transform="translate(282,327)"/>
<path d="M0 0 C4.93988688 0.68689041 7.01046139 3.41123421 10.30859375 6.96875 C10.92831055 7.61295898 11.54802734 8.25716797 12.18652344 8.92089844 C15.78556468 12.68689573 19.27673273 16.53775753 22.640625 20.515625 C26.34329034 24.69470552 30.3886837 28.55845603 34.37109375 32.46875 C34.51595394 28.19827167 34.60501991 23.92842167 34.68359375 19.65625 C34.74643555 17.83383789 34.74643555 17.83383789 34.81054688 15.97460938 C34.82666016 14.81123047 34.84277344 13.64785156 34.859375 12.44921875 C34.88555908 11.37567139 34.91174316 10.30212402 34.9387207 9.19604492 C34.65418798 6.23003069 34.65418798 6.23003069 31.84057617 4.7824707 C31.02564697 4.34894287 30.21071777 3.91541504 29.37109375 3.46875 C29.37109375 2.47875 29.37109375 1.48875 29.37109375 0.46875 C34.65109375 0.46875 39.93109375 0.46875 45.37109375 0.46875 C45.86609375 1.95375 45.86609375 1.95375 46.37109375 3.46875 C44.72109375 4.12875 43.07109375 4.78875 41.37109375 5.46875 C41.37109375 19.65875 41.37109375 33.84875 41.37109375 48.46875 C36.22645455 47.43982216 35.41862218 47.01134649 31.97265625 43.49609375 C30.75835937 42.26922852 30.75835937 42.26922852 29.51953125 41.01757812 C28.68679688 40.15583984 27.8540625 39.29410156 26.99609375 38.40625 C26.17109375 37.57158203 25.34609375 36.73691406 24.49609375 35.87695312 C20.15088593 31.45242802 15.96787731 26.93264 11.92333984 22.23266602 C9.83988433 19.86510294 7.63458415 17.66364978 5.37109375 15.46875 C5.19698272 19.8849199 5.09029613 24.30021003 4.99609375 28.71875 C4.94582031 29.97300781 4.89554687 31.22726562 4.84375 32.51953125 C4.42050635 38.71527523 4.42050635 38.71527523 6.73339844 44.15039062 C8.54823259 45.36343806 8.54823259 45.36343806 11.37109375 46.46875 C11.37109375 47.12875 11.37109375 47.78875 11.37109375 48.46875 C5.76109375 48.46875 0.15109375 48.46875 -5.62890625 48.46875 C-5.62890625 47.47875 -5.62890625 46.48875 -5.62890625 45.46875 C-4.30890625 44.80875 -2.98890625 44.14875 -1.62890625 43.46875 C-1.5793652 38.29094834 -1.54311989 33.11328554 -1.51904297 27.93530273 C-1.50900274 26.17486161 -1.49536781 24.41443709 -1.47802734 22.65405273 C-1.45369189 20.11958715 -1.44240329 17.58534261 -1.43359375 15.05078125 C-1.41810989 13.87549614 -1.41810989 13.87549614 -1.40231323 12.6764679 C-1.40145931 8.49119596 -1.73686793 5.22991269 -3.62890625 1.46875 C-2.62890625 0.46875 -2.62890625 0.46875 0 0 Z " fill="#ECEDEF" transform="translate(340.62890625,326.53125)"/>
<path d="M0 0 C2.50390625 -0.46875 2.50390625 -0.46875 6 0 C8.98171948 2.17189839 11.42081191 4.81426285 13.9375 7.5 C14.61490234 8.19609375 15.29230469 8.8921875 15.99023438 9.609375 C19.26371691 12.99898299 22.4258746 16.46363066 25.50390625 20.03125 C29.13209894 24.22928021 33.03207013 28.12482693 37 32 C37.14486019 27.72952167 37.23392616 23.45967167 37.3125 19.1875 C37.3753418 17.36508789 37.3753418 17.36508789 37.43945312 15.50585938 C37.45556641 14.34248047 37.47167969 13.17910156 37.48828125 11.98046875 C37.51446533 10.90692139 37.54064941 9.83337402 37.56762695 8.72729492 C37.28309423 5.76128069 37.28309423 5.76128069 34.46948242 4.3137207 C33.65455322 3.88019287 32.83962402 3.44666504 32 3 C32 2.01 32 1.02 32 0 C37.28 0 42.56 0 48 0 C48.495 1.485 48.495 1.485 49 3 C48.1850708 3.29946533 47.3701416 3.59893066 46.53051758 3.9074707 C43.8748893 5.67444591 43.8748893 5.67444591 43.55307007 7.89852905 C43.41962589 10.43869206 43.43906809 12.93772385 43.51171875 15.48046875 C43.52233086 16.87245232 43.52233086 16.87245232 43.53315735 18.29255676 C43.56116057 21.2583558 43.62390967 24.22227108 43.6875 27.1875 C43.71257522 29.19723837 43.73538974 31.20700632 43.75585938 33.21679688 C43.81100673 38.14525776 43.89732003 43.07230946 44 48 C40 48 40 48 38.00463867 46.47460938 C37.3160376 45.77142578 36.62743652 45.06824219 35.91796875 44.34375 C35.15033203 43.56773437 34.38269531 42.79171875 33.59179688 41.9921875 C32.79837891 41.16976562 32.00496094 40.34734375 31.1875 39.5 C30.40568359 38.70851563 29.62386719 37.91703125 28.81835938 37.1015625 C24.62469917 32.82732236 20.60624595 28.44929056 16.70043945 23.91210938 C13.93719806 20.80490096 10.97971691 17.8982049 8 15 C7.9421696 19.45827926 7.90646145 23.9164628 7.875 28.375 C7.85824219 29.64601563 7.84148438 30.91703125 7.82421875 32.2265625 C7.81455078 34.04414063 7.81455078 34.04414063 7.8046875 35.8984375 C7.78897705 37.57945557 7.78897705 37.57945557 7.77294922 39.29443359 C7.71944677 42.14977843 7.71944677 42.14977843 10 44 C12.06874034 44.6425235 12.06874034 44.6425235 14 45 C14 45.99 14 46.98 14 48 C8.39 48 2.78 48 -3 48 C-3 47.01 -3 46.02 -3 45 C-2.360625 44.71125 -1.72125 44.4225 -1.0625 44.125 C1.15206079 43.17176549 1.15206079 43.17176549 2 41 C2.12285662 38.57767707 2.18832331 36.18517944 2.203125 33.76171875 C2.20882507 33.04393753 2.21452515 32.32615631 2.22039795 31.58662415 C2.22984952 30.06598383 2.23638256 28.54532301 2.24023438 27.0246582 C2.24991925 24.70682611 2.2809308 22.38988875 2.3125 20.07226562 C2.31903237 18.59375526 2.32428192 17.11523855 2.328125 15.63671875 C2.3404718 14.94696457 2.3528186 14.25721039 2.36553955 13.54655457 C2.34512937 9.09977165 1.3655666 6.68977851 -1 3 C-0.67 2.01 -0.34 1.02 0 0 Z " fill="#F0F1F2" transform="translate(19,327)"/>
<path d="M0 0 C2.03026258 1.20960089 3.65248976 2.45114416 5.3515625 4.08984375 C6.08246094 4.79367187 6.08246094 4.79367187 6.828125 5.51171875 C12.21063737 11.36638133 13.95767764 17.48552632 13.69140625 25.25 C12.87350315 32.08466157 10.61800777 37.3231556 5.5390625 42.02734375 C-0.89657567 47.03415216 -6.52487482 48.73355243 -14.6484375 48.5 C-21.80500317 47.52156329 -27.0898243 43.52039199 -31.4296875 37.890625 C-35.91224442 31.26735981 -36.69342236 24.9023496 -35.6484375 17.08984375 C-33.4922613 10.25716094 -29.75043729 4.91652158 -23.6484375 1.08984375 C-17.02794992 -2.26098096 -6.99734372 -2.40469187 0 0 Z M-24.9609375 8.58984375 C-28.43367796 13.73464443 -28.21989175 19.0855498 -27.6484375 25.08984375 C-25.71541027 32.09292527 -21.54999234 38.78892679 -15.2109375 42.52734375 C-10.56464256 43.54726215 -6.94499468 43.57287486 -2.4609375 41.90234375 C1.57749593 39.29979776 3.83196029 36.64865039 5.3515625 32.08984375 C6.25076862 23.65015198 5.27062872 17.10788325 0.3515625 10.08984375 C-3.51756642 5.78518462 -7.83561249 3.38908045 -13.5859375 2.77734375 C-18.53543367 3.28239438 -21.59327797 4.94913075 -24.9609375 8.58984375 Z " fill="#F2F2F3" transform="translate(109.6484375,327.91015625)"/>
<path d="M0 0 C6.27 0 12.54 0 19 0 C19.33 0.99 19.66 1.98 20 3 C19.18724609 3.36246826 18.37449219 3.72493652 17.53710938 4.09838867 C14.71306013 5.78006851 14.71306013 5.78006851 14.38476562 8.9074707 C14.39185547 10.06851318 14.39894531 11.22955566 14.40625 12.42578125 C14.40882813 13.69744141 14.41140625 14.96910156 14.4140625 16.27929688 C14.42856445 16.94179443 14.44306641 17.60429199 14.45800781 18.28686523 C14.49962395 20.29436013 14.49611114 22.3026245 14.4921875 24.31054688 C14.5628251 33.06490966 14.5628251 33.06490966 18 41 C22.26244919 43.8416328 25.99967088 43.50403317 31 43 C34.58436448 41.62726467 35.65037616 40.59108413 37.59960938 37.2956543 C40.00463011 31.63572143 39.51230519 25.88203376 39.5 19.8125 C39.52835937 18.52923828 39.55671875 17.24597656 39.5859375 15.92382812 C39.58851563 14.69728516 39.59109375 13.47074219 39.59375 12.20703125 C39.60083984 11.0878833 39.60792969 9.96873535 39.61523438 8.81567383 C39.29035578 5.77012576 39.29035578 5.77012576 36.46289062 4.29956055 C35.65013672 3.87070557 34.83738281 3.44185059 34 3 C34 2.01 34 1.02 34 0 C39.28 0 44.56 0 50 0 C50 0.99 50 1.98 50 3 C48.02 3.99 48.02 3.99 46 5 C45.98541748 5.83660156 45.97083496 6.67320312 45.95581055 7.53515625 C45.89432781 10.67403443 45.82009835 13.81229416 45.73754883 16.95068359 C45.68840355 18.96300311 45.65363712 20.97565732 45.61914062 22.98828125 C45.18907069 38.54899332 45.18907069 38.54899332 40.09765625 44.05859375 C39.09025391 44.74115234 39.09025391 44.74115234 38.0625 45.4375 C37.39347656 45.91058594 36.72445312 46.38367188 36.03515625 46.87109375 C31.07610891 49.62188968 25.53265807 49.59070485 20 49 C14.09015639 47.20758643 10.45572466 44.0265086 7 39 C5.77373449 35.49355655 5.87455129 32.05969065 5.859375 28.37109375 C5.84003906 27.08912109 5.82070312 25.80714844 5.80078125 24.48632812 C5.77173314 22.45616094 5.74999752 20.42711767 5.74951172 18.39672852 C5.74618298 16.42968284 5.70948656 14.46278263 5.671875 12.49609375 C5.65785645 10.73543579 5.65785645 10.73543579 5.64355469 8.93920898 C5.30606177 5.7812965 5.30606177 5.7812965 2.45800781 4.28149414 C1.64686523 3.85860107 0.83572266 3.43570801 0 3 C0 2.01 0 1.02 0 0 Z " fill="#ECEDEE" transform="translate(226,327)"/>
<path d="M0 0 C11.88 0 23.76 0 36 0 C35.34 2.97 34.68 5.94 34 9 C33.34 9 32.68 9 32 9 C31.525625 8.360625 31.05125 7.72125 30.5625 7.0625 C29.0908635 4.71627037 29.0908635 4.71627037 26 4 C24.48233461 3.88367271 22.9595654 3.82503761 21.4375 3.8125 C20.65246094 3.79832031 19.86742187 3.78414063 19.05859375 3.76953125 C16.7756455 3.80832491 16.7756455 3.80832491 15 6 C14.75622117 9.35744112 14.75622117 9.35744112 14.875 13.125 C14.90207031 15.04699219 14.90207031 15.04699219 14.9296875 17.0078125 C14.95289063 17.99523437 14.97609375 18.98265625 15 20 C16.74965358 20.05429959 18.49979787 20.09292823 20.25 20.125 C21.22453125 20.14820313 22.1990625 20.17140625 23.203125 20.1953125 C26.0599167 19.99581587 27.50022764 19.27125176 30 18 C30.99 18.33 31.98 18.66 33 19 C31.02 23.455 31.02 23.455 29 28 C25 27 25 27 23 26 C21.46331135 25.77532169 19.92031946 25.59203195 18.375 25.4375 C17.55773437 25.35371094 16.74046875 25.26992188 15.8984375 25.18359375 C14.95871094 25.09271484 14.95871094 25.09271484 14 25 C14.11369211 27.45933991 14.24042651 29.9167909 14.375 32.375 C14.4059375 33.07367188 14.436875 33.77234375 14.46875 34.4921875 C14.59499498 38.70185827 14.59499498 38.70185827 17 42 C22.66901076 42.90665997 27.61156329 42.7063645 32.5 39.5625 C33.41265625 38.88380859 33.41265625 38.88380859 34.34375 38.19140625 C36 37 36 37 39 36 C38.51864407 42.25762712 38.51864407 42.25762712 36.45605469 45.20996094 C33.04890844 47.69318124 30.00336399 47.50287307 25.953125 47.390625 C24.79632233 47.38213531 24.79632233 47.38213531 23.6161499 47.37347412 C21.16012721 47.35113589 18.70557945 47.30094763 16.25 47.25 C14.58205237 47.22993154 12.91408179 47.21168137 11.24609375 47.1953125 C7.16349677 47.15127992 3.08199819 47.08227283 -1 47 C-1 46.01 -1 45.02 -1 44 C-0.195625 43.690625 0.60875 43.38125 1.4375 43.0625 C3.89080405 42.23664655 3.89080405 42.23664655 5 41 C5.29147401 35.90621496 5.31400106 30.80982371 5.35009766 25.70849609 C5.36666603 23.98960845 5.39396803 22.27078995 5.43212891 20.55224609 C5.48679998 18.07873678 5.50875435 15.60684397 5.5234375 13.1328125 C5.54610687 12.36397736 5.56877625 11.59514221 5.59213257 10.80300903 C5.63856568 8.37441178 5.63856568 8.37441178 5 5 C2.5843064 3.06426513 2.5843064 3.06426513 0 2 C0 1.34 0 0.68 0 0 Z " fill="#EFEFF0" transform="translate(392,328)"/>
<path d="M0 0 C14.19 0 28.38 0 43 0 C42.67 2.97 42.34 5.94 42 9 C41.01 9.33 40.02 9.66 39 10 C38.525625 9.34 38.05125 8.68 37.5625 8 C34.64667143 5.72423136 33.89365977 5.77263986 30.33984375 5.875 C29.52765381 5.89304687 28.71546387 5.91109375 27.87866211 5.9296875 C27.25870361 5.95289063 26.63874512 5.97609375 26 6 C25.95063842 11.09031755 25.91429895 16.18049643 25.89013672 21.27099609 C25.88006624 23.00344265 25.86640911 24.73587216 25.84912109 26.46826172 C25.82491838 28.95544639 25.81352761 31.44240675 25.8046875 33.9296875 C25.79436493 34.70682098 25.78404236 35.48395447 25.77340698 36.28463745 C25.77300729 38.19125493 25.8776786 40.09731036 26 42 C28.35953094 44.35953094 29.77895617 44.49141413 33 45 C33 45.99 33 46.98 33 48 C25.08 48 17.16 48 9 48 C9 47.01 9 46.02 9 45 C11.31 44.01 13.62 43.02 16 42 C16 30.12 16 18.24 16 6 C6.21220644 5.4202491 6.21220644 5.4202491 2 7 C1.67 7.99 1.34 8.98 1 10 C0.34 10 -0.32 10 -1 10 C-0.67 6.7 -0.34 3.4 0 0 Z " fill="#EFF0F1" transform="translate(178,327)"/>
<path d="M0 0 C0.79857422 -0.01611328 1.59714844 -0.03222656 2.41992188 -0.04882812 C7.15365511 -0.05275002 10.16490928 0.32828407 14.0625 3.3125 C13.7325 5.2925 13.4025 7.2725 13.0625 9.3125 C6.52081762 8.55769049 6.52081762 8.55769049 4.1640625 7.296875 C0.04894346 5.36934712 -4.50679886 5.79953894 -8.9375 6.3125 C-12.77227533 8.06169577 -14.36567742 9.22083871 -16.3125 12.9375 C-17.83978511 21.1848396 -17.49748744 28.07277968 -12.9375 35.3125 C-9.19632053 39.05367947 -5.32963328 41.0935699 -0.03515625 41.578125 C7.69833456 41.54786445 7.69833456 41.54786445 15.0625 39.3125 C14.69358098 41.93406088 14.39083246 43.0393804 12.3203125 44.76171875 C11.61648437 45.17035156 10.91265625 45.57898438 10.1875 46 C9.48882812 46.41636719 8.79015625 46.83273437 8.0703125 47.26171875 C2.9784991 49.92650047 -2.02422667 50.13845114 -7.47265625 48.59375 C-14.17928005 46.08508831 -19.43201095 43.16245118 -23.3125 36.9375 C-26.3381099 30.25064788 -26.06621388 21.82735553 -24.3125 14.8125 C-21.68126699 8.79825311 -16.52224942 4.80443897 -11.24609375 1.13671875 C-7.55388457 -0.18148114 -3.88911046 -0.01561892 0 0 Z " fill="#F2F3F3" transform="translate(155.9375,326.6875)"/>
<path d="M0 0 C3.88161929 0.32895079 5.63849699 0.96041197 8.6875 3.3125 C10.75270632 6.41030948 10.98227024 7.2665481 11 10.8125 C11.01675781 11.5859375 11.03351563 12.359375 11.05078125 13.15625 C10.59435014 15.8653895 9.87885728 16.69000522 7.6875 18.3125 C4.75741222 19.37193257 2.0337517 19.42053311 -1.0625 19.375 C-1.86171875 19.36597656 -2.6609375 19.35695313 -3.484375 19.34765625 C-4.08765625 19.33605469 -4.6909375 19.32445312 -5.3125 19.3125 C-5.36630578 16.52057795 -5.40607669 13.7296859 -5.4375 10.9375 C-5.45425781 10.1434375 -5.47101563 9.349375 -5.48828125 8.53125 C-5.50585473 6.45757985 -5.41585168 4.38366759 -5.3125 2.3125 C-3.3125 0.3125 -3.3125 0.3125 0 0 Z " fill="#0C1C30" transform="translate(300.3125,330.6875)"/>
</svg>
